<?xml version="1.0" standalone="no"?>
<!DOCTYPE svg PUBLIC "-//W3C//DTD SVG 20010904//EN"
 "http://www.w3.org/TR/2001/REC-SVG-20010904/DTD/svg10.dtd">
<svg version="1.0" xmlns="http://www.w3.org/2000/svg"
 width="1280.000000pt" height="1280.000000pt" viewBox="0 0 1280.000000 1280.000000"
 preserveAspectRatio="xMidYMid meet">
<metadata>
Created by potrace 1.14, written by Peter Selinger 2001-2017
</metadata>
<g transform="translate(0.000000,1280.000000) scale(0.100000,-0.100000)"
fill="#000000" stroke="none">
<path d="M6079 12795 c-2 -2 -51 -6 -108 -9 -103 -6 -197 -13 -256 -21 -162
-21 -213 -28 -230 -30 -21 -2 -105 -15 -140 -21 -10 -2 -37 -6 -60 -10 -66 -9
-363 -74 -465 -101 -52 -14 -102 -26 -110 -28 -142 -28 -832 -274 -867 -309
-3 -3 -15 -6 -25 -6 -10 0 -18 -4 -18 -10 0 -5 -5 -10 -11 -10 -32 0 -529
-251 -537 -272 -2 -4 -10 -8 -18 -8 -8 0 -27 -8 -42 -19 -15 -10 -74 -47 -132
-82 -521 -313 -1070 -776 -1470 -1238 -30 -35 -68 -78 -83 -95 -15 -17 -47
-56 -70 -86 -23 -30 -47 -59 -53 -65 -54 -51 -484 -673 -484 -701 0 -2 -11
-21 -23 -42 -13 -20 -35 -57 -49 -82 -14 -25 -35 -63 -48 -85 -41 -71 -177
-348 -221 -445 -86 -196 -204 -498 -238 -612 -5 -18 -28 -94 -51 -168 -41
-134 -108 -394 -129 -500 -6 -30 -14 -66 -16 -80 -14 -65 -35 -179 -40 -215
-3 -23 -7 -52 -10 -65 -4 -21 -17 -114 -30 -215 -3 -22 -7 -65 -10 -95 -3 -30
-8 -77 -10 -105 -26 -248 -26 -885 -1 -1125 3 -25 7 -72 10 -105 6 -66 14
-134 21 -180 3 -16 8 -50 11 -75 3 -25 8 -56 10 -70 3 -14 7 -41 9 -60 3 -19
8 -46 11 -60 8 -33 14 -64 18 -97 2 -16 9 -49 15 -76 6 -26 14 -62 16 -80 3
-17 21 -93 40 -167 20 -74 37 -143 40 -154 16 -68 103 -353 115 -381 5 -11 18
-47 29 -80 37 -108 52 -150 61 -160 5 -5 9 -14 10 -20 4 -18 12 -40 26 -72 8
-17 14 -34 14 -37 0 -3 14 -35 30 -71 17 -36 30 -67 30 -70 0 -17 222 -465
251 -507 11 -14 19 -29 19 -32 0 -3 20 -40 45 -82 25 -41 45 -77 45 -79 0 -6
107 -173 198 -308 77 -115 290 -405 326 -443 6 -7 25 -29 43 -50 32 -40 37
-46 126 -149 158 -181 407 -429 592 -589 44 -38 82 -72 85 -75 3 -4 59 -49
125 -102 447 -357 905 -636 1420 -864 33 -14 74 -32 90 -40 82 -37 125 -55
151 -61 16 -4 34 -10 39 -14 21 -14 242 -91 470 -163 79 -25 228 -65 274 -73
14 -3 28 -7 32 -10 7 -4 258 -59 319 -70 14 -2 36 -7 48 -10 13 -2 43 -7 65
-10 23 -3 62 -9 87 -14 25 -5 70 -12 100 -16 30 -3 64 -8 75 -10 26 -5 84 -12
160 -19 33 -3 78 -7 100 -10 216 -26 915 -27 1140 -1 22 3 67 8 100 11 113 11
160 16 215 26 30 5 71 11 90 13 38 5 65 10 185 31 44 8 95 17 114 20 19 3 37
7 40 9 3 2 22 7 41 10 47 7 293 69 405 101 50 14 97 27 105 29 142 34 746 269
888 346 9 5 64 32 122 61 223 109 483 261 700 408 105 71 267 187 305 218 6 5
39 31 75 58 36 27 67 52 70 55 3 3 30 25 60 50 30 25 57 47 60 50 3 3 39 34
80 70 142 123 392 367 515 505 39 43 75 83 80 89 6 6 33 38 61 71 27 33 59 71
71 85 12 14 59 73 105 132 406 523 715 1076 945 1693 55 146 129 367 138 412
2 10 8 30 14 46 9 23 21 68 57 207 15 61 76 331 79 355 2 17 6 39 9 50 12 58
53 325 61 400 1 11 5 52 9 90 4 39 9 84 11 100 26 207 27 897 0 1140 -2 22 -7
67 -10 100 -5 58 -7 75 -20 175 -6 44 -20 140 -30 210 -3 19 -11 60 -17 90 -6
30 -12 64 -12 75 -1 11 -5 26 -10 33 -4 7 -6 16 -3 19 3 3 2 15 -3 27 -4 13
-11 38 -14 57 -3 19 -17 81 -31 139 -14 58 -28 116 -31 130 -2 14 -7 32 -11
40 -3 8 -8 24 -10 35 -2 11 -10 40 -18 65 -7 25 -30 99 -50 165 -20 66 -40
129 -45 140 -5 11 -18 47 -29 80 -33 97 -52 148 -59 159 -4 6 -7 13 -8 16 -1
6 -13 39 -24 65 -5 11 -27 63 -48 115 -87 208 -275 590 -294 598 -5 2 -8 8 -8
13 0 4 -20 43 -45 85 -25 41 -45 77 -45 80 0 5 -127 204 -202 316 -109 162
-309 424 -417 548 -12 14 -46 52 -74 85 -204 234 -485 506 -737 714 -14 11
-32 26 -40 34 -8 7 -33 27 -55 43 -22 16 -42 32 -45 35 -38 45 -581 415 -680
463 -24 11 -57 31 -71 43 -13 10 -148 82 -329 175 -93 47 -264 125 -405 183
-49 21 -99 41 -110 46 -74 32 -391 140 -510 174 -33 9 -71 21 -85 26 -22 7
-249 66 -290 74 -8 2 -35 8 -60 14 -25 5 -58 12 -75 15 -16 3 -41 8 -55 12
-27 6 -155 29 -210 38 -19 3 -46 8 -59 11 -14 2 -45 7 -70 10 -25 3 -62 7 -81
10 -19 2 -55 7 -80 10 -25 3 -59 7 -77 10 -18 2 -70 7 -115 11 -46 3 -105 8
-133 11 -63 5 -752 13 -756 8z"/>
</g>
</svg>
